<?xml version="1.0" encoding="UTF-8"?>
<svg width="600" height="200" viewBox="0 0 600 200" xmlns="http://www.w3.org/2000/svg">
  <defs>
    <linearGradient id="bgGrad_32" x1="0%" y1="0%" x2="100%" y2="100%">
      <stop offset="0%" stop-color="#0b1120" />
      <stop offset="100%" stop-color="#151f32" />
    </linearGradient>
    <marker id="arrow" viewBox="0 0 10 10" refX="5" refY="5" markerWidth="6" markerHeight="6" orient="auto-start-reverse">
      <path d="M 0 0 L 10 5 L 0 10 z" fill="hsl(260, 90%, 55%)" />
    </marker>
  </defs>
  <!-- Background -->
  <rect width="600" height="200" fill="url(#bgGrad_32)" rx="10" />
  <rect width="594" height="194" x="3" y="3" fill="none" stroke="hsl(260, 90%, 55%)" stroke-width="1.5" stroke-opacity="0.35" rx="9" />
  <text x="15" y="22" fill="#64748b" font-family="sans-serif" font-size="10" font-weight="bold">NETWORKING TECHNICAL SCHEMATIC #32</text>
  
      <g transform="translate(180, 50)">
        <!-- Router Body -->
        <rect x="40" y="70" width="160" height="45" rx="8" fill="#1e293b" stroke="hsl(260, 90%, 55%)" stroke-width="3" />
        <!-- Antennas -->
        <line x1="60" y1="70" x2="40" y2="20" stroke="hsl(260, 90%, 55%)" stroke-width="4" stroke-linecap="round" />
        <line x1="180" y1="70" x2="200" y2="20" stroke="hsl(260, 90%, 55%)" stroke-width="4" stroke-linecap="round" />
        <!-- Concentric RF Signal Waves -->
        <path d="M 100 10 A 60 60 0 0 1 220 10" fill="none" stroke="hsl(260, 90%, 55%)" stroke-width="4" stroke-linecap="round" opacity="0.9" />
        <path d="M 80 -10 A 90 90 0 0 1 240 -10" fill="none" stroke="hsl(305, 85%, 50%)" stroke-width="3" stroke-linecap="round" stroke-dasharray="6,4" />
        <path d="M 60 -30 A 120 120 0 0 1 260 -30" fill="none" stroke="hsl(260, 90%, 55%)" stroke-width="2" stroke-linecap="round" opacity="0.5" />
        <text x="120" y="140" text-anchor="middle" fill="#e2e8f0" font-family="sans-serif" font-size="14" font-weight="bold">IEEE 802.11 Wi-Fi RF Wave Modulation</text>
      </g>
    
</svg>