<?xml version="1.0" encoding="UTF-8"?>
<svg width="600" height="200" viewBox="0 0 600 200" xmlns="http://www.w3.org/2000/svg">
  <defs>
    <linearGradient id="bgGrad_8" x1="0%" y1="0%" x2="100%" y2="100%">
      <stop offset="0%" stop-color="#0b1120" />
      <stop offset="100%" stop-color="#151f32" />
    </linearGradient>
    <marker id="arrow" viewBox="0 0 10 10" refX="5" refY="5" markerWidth="6" markerHeight="6" orient="auto-start-reverse">
      <path d="M 0 0 L 10 5 L 0 10 z" fill="hsl(200, 90%, 55%)" />
    </marker>
  </defs>
  <!-- Background -->
  <rect width="600" height="200" fill="url(#bgGrad_8)" rx="10" />
  <rect width="594" height="194" x="3" y="3" fill="none" stroke="hsl(200, 90%, 55%)" stroke-width="1.5" stroke-opacity="0.35" rx="9" />
  <text x="15" y="22" fill="#64748b" font-family="sans-serif" font-size="10" font-weight="bold">NETWORKING TECHNICAL SCHEMATIC #8</text>
  
      <g transform="translate(80, 40)">
        <!-- Outer Sheath -->
        <rect x="0" y="40" width="160" height="60" rx="10" fill="#3b82f6" stroke="#1d4ed8" stroke-width="3" />
        <text x="80" y="75" text-anchor="middle" fill="#ffffff" font-family="sans-serif" font-size="12" font-weight="bold">UTP Cat6 PVC</text>
        <!-- 4 Twisted Pairs exposed -->
        <path d="M 160 50 Q 190 40 220 50 T 280 50 T 340 50" fill="none" stroke="#ea580c" stroke-width="5" />
        <path d="M 160 55 Q 190 65 220 55 T 280 55 T 340 55" fill="none" stroke="#ffffff" stroke-width="4" />
        <path d="M 160 70 Q 190 60 220 70 T 280 70 T 340 70" fill="none" stroke="#16a34a" stroke-width="5" />
        <path d="M 160 75 Q 190 85 220 75 T 280 75 T 340 75" fill="none" stroke="#ffffff" stroke-width="4" />
        <!-- RJ45 Plug -->
        <rect x="340" y="35" width="70" height="70" rx="6" fill="#0f172a" stroke="hsl(200, 90%, 55%)" stroke-width="3" />
        <rect x="390" y="45" width="15" height="50" fill="#eab308" />
        <text x="220" y="20" text-anchor="middle" fill="#e2e8f0" font-family="sans-serif" font-size="14" font-weight="bold">Twisted Pair Copper Cabling & RJ-45 Connector</text>
      </g>
    
</svg>