<?xml version="1.0" encoding="UTF-8"?>
<svg width="600" height="200" viewBox="0 0 600 200" xmlns="http://www.w3.org/2000/svg">
  <defs>
    <linearGradient id="bgGrad_166" x1="0%" y1="0%" x2="100%" y2="100%">
      <stop offset="0%" stop-color="#0b1120" />
      <stop offset="100%" stop-color="#151f32" />
    </linearGradient>
    <marker id="arrow" viewBox="0 0 10 10" refX="5" refY="5" markerWidth="6" markerHeight="6" orient="auto-start-reverse">
      <path d="M 0 0 L 10 5 L 0 10 z" fill="hsl(280, 90%, 55%)" />
    </marker>
  </defs>
  <!-- Background -->
  <rect width="600" height="200" fill="url(#bgGrad_166)" rx="10" />
  <rect width="594" height="194" x="3" y="3" fill="none" stroke="hsl(280, 90%, 55%)" stroke-width="1.5" stroke-opacity="0.35" rx="9" />
  <text x="15" y="22" fill="#64748b" font-family="sans-serif" font-size="10" font-weight="bold">NETWORKING TECHNICAL SCHEMATIC #166</text>
  
      <g transform="translate(180, 20)">
        <!-- Security Shield -->
        <path d="M 120 10 L 200 40 V 90 C 200 130 120 155 120 155 C 120 155 40 130 40 90 V 40 Z" fill="#0f172a" stroke="hsl(280, 90%, 55%)" stroke-width="3.5" />
        <!-- Padlock inside -->
        <rect x="100" y="75" width="40" height="35" rx="5" fill="hsl(325, 85%, 50%)" />
        <path d="M 110 75 V 60 C 110 50 130 50 130 60 V 75" fill="none" stroke="hsl(325, 85%, 50%)" stroke-width="4" stroke-linecap="round" />
        <circle cx="120" cy="90" r="4" fill="#0f172a" />
        <!-- Cipher Code streams -->
        <text x="0" y="80" fill="hsl(280, 90%, 55%)" font-family="monospace" font-size="11" opacity="0.7">AES-256</text>
        <text x="210" y="80" fill="hsl(280, 90%, 55%)" font-family="monospace" font-size="11" opacity="0.7">RSA-4096</text>
        <text x="120" y="170" text-anchor="middle" fill="#e2e8f0" font-family="sans-serif" font-size="13" font-weight="bold">TLS Encrypted Secure Protocol</text>
      </g>
    
</svg>