<?xml version="1.0" encoding="UTF-8"?>
<svg width="600" height="200" viewBox="0 0 600 200" xmlns="http://www.w3.org/2000/svg">
  <defs>
    <linearGradient id="bgGrad_185" x1="0%" y1="0%" x2="100%" y2="100%">
      <stop offset="0%" stop-color="#0b1120" />
      <stop offset="100%" stop-color="#151f32" />
    </linearGradient>
    <marker id="arrow" viewBox="0 0 10 10" refX="5" refY="5" markerWidth="6" markerHeight="6" orient="auto-start-reverse">
      <path d="M 0 0 L 10 5 L 0 10 z" fill="hsl(340, 90%, 55%)" />
    </marker>
  </defs>
  <!-- Background -->
  <rect width="600" height="200" fill="url(#bgGrad_185)" rx="10" />
  <rect width="594" height="194" x="3" y="3" fill="none" stroke="hsl(340, 90%, 55%)" stroke-width="1.5" stroke-opacity="0.35" rx="9" />
  <text x="15" y="22" fill="#64748b" font-family="sans-serif" font-size="10" font-weight="bold">NETWORKING TECHNICAL SCHEMATIC #185</text>
  
      <g transform="translate(80, 25)">
        <!-- Server Racks -->
        <rect x="40" y="20" width="80" height="110" rx="6" fill="#0f172a" stroke="hsl(340, 90%, 55%)" stroke-width="2.5" />
        <line x1="50" y1="40" x2="110" y2="40" stroke="#334155" stroke-width="2" />
        <line x1="50" y1="60" x2="110" y2="60" stroke="#334155" stroke-width="2" />
        <line x1="50" y1="80" x2="110" y2="80" stroke="#334155" stroke-width="2" />
        <circle cx="60" cy="40" r="3" fill="#22c55e" />
        <circle cx="60" cy="60" r="3" fill="#22c55e" />
        <circle cx="60" cy="80" r="3" fill="#38bdf8" />
        <!-- Subsea Fiber Link -->
        <path d="M 120 75 Q 220 130 320 75" fill="none" stroke="#0284c7" stroke-width="4" stroke-dasharray="8,4" />
        <!-- Target Server -->
        <rect x="320" y="20" width="80" height="110" rx="6" fill="#0f172a" stroke="hsl(25, 85%, 50%)" stroke-width="2.5" />
        <line x1="330" y1="40" x2="390" y2="40" stroke="#334155" stroke-width="2" />
        <line x1="330" y1="60" x2="390" y2="60" stroke="#334155" stroke-width="2" />
        <circle cx="340" cy="40" r="3" fill="#22c55e" />
        <circle cx="340" cy="60" r="3" fill="#22c55e" />
        <text x="220" y="150" text-anchor="middle" fill="#e2e8f0" font-family="sans-serif" font-size="13" font-weight="bold">Intercontinental Fiber Subsea Infrastructure & Data Centers</text>
      </g>
    
</svg>