<?xml version="1.0" encoding="UTF-8"?>
<svg width="600" height="200" viewBox="0 0 600 200" xmlns="http://www.w3.org/2000/svg">
  <defs>
    <linearGradient id="bgGrad_110" x1="0%" y1="0%" x2="100%" y2="100%">
      <stop offset="0%" stop-color="#0b1120" />
      <stop offset="100%" stop-color="#151f32" />
    </linearGradient>
    <marker id="arrow" viewBox="0 0 10 10" refX="5" refY="5" markerWidth="6" markerHeight="6" orient="auto-start-reverse">
      <path d="M 0 0 L 10 5 L 0 10 z" fill="hsl(190, 90%, 55%)" />
    </marker>
  </defs>
  <!-- Background -->
  <rect width="600" height="200" fill="url(#bgGrad_110)" rx="10" />
  <rect width="594" height="194" x="3" y="3" fill="none" stroke="hsl(190, 90%, 55%)" stroke-width="1.5" stroke-opacity="0.35" rx="9" />
  <text x="15" y="22" fill="#64748b" font-family="sans-serif" font-size="10" font-weight="bold">NETWORKING TECHNICAL SCHEMATIC #110</text>
  
      <g transform="translate(100, 30)">
        <!-- LAN Side -->
        <rect x="20" y="50" width="100" height="50" rx="6" fill="#1e293b" stroke="#38bdf8" stroke-width="2" />
        <text x="70" y="75" text-anchor="middle" fill="#38bdf8" font-family="sans-serif" font-size="11" font-weight="bold">Private LAN</text>
        <text x="70" y="90" text-anchor="middle" fill="#94a3b8" font-family="monospace" font-size="10">192.168.1.0/24</text>
        <!-- Router in Middle -->
        <path d="M 200 45 L 240 75 L 200 105 L 160 75 Z" fill="#0f172a" stroke="hsl(190, 90%, 55%)" stroke-width="3" />
        <text x="200" y="78" text-anchor="middle" fill="#ffffff" font-family="sans-serif" font-size="11" font-weight="bold">ROUTER</text>
        <!-- WAN Side -->
        <rect x="280" y="50" width="100" height="50" rx="6" fill="#1e293b" stroke="#f59e0b" stroke-width="2" />
        <text x="330" y="75" text-anchor="middle" fill="#f59e0b" font-family="sans-serif" font-size="11" font-weight="bold">Public Internet</text>
        <text x="330" y="90" text-anchor="middle" fill="#94a3b8" font-family="monospace" font-size="10">203.0.113.5</text>
        <!-- Connectors -->
        <line x1="120" y1="75" x2="160" y2="75" stroke="#38bdf8" stroke-width="3" />
        <line x1="240" y1="75" x2="280" y2="75" stroke="#f59e0b" stroke-width="3" />
        <text x="200" y="140" text-anchor="middle" fill="#e2e8f0" font-family="sans-serif" font-size="13" font-weight="bold">Layer 3 Gateway & NAT Translation</text>
      </g>
    
</svg>