<?xml version="1.0" encoding="UTF-8"?>
<svg width="600" height="200" viewBox="0 0 600 200" xmlns="http://www.w3.org/2000/svg">
  <defs>
    <linearGradient id="bgGrad_119" x1="0%" y1="0%" x2="100%" y2="100%">
      <stop offset="0%" stop-color="#0b1120" />
      <stop offset="100%" stop-color="#151f32" />
    </linearGradient>
    <marker id="arrow" viewBox="0 0 10 10" refX="5" refY="5" markerWidth="6" markerHeight="6" orient="auto-start-reverse">
      <path d="M 0 0 L 10 5 L 0 10 z" fill="hsl(230, 90%, 55%)" />
    </marker>
  </defs>
  <!-- Background -->
  <rect width="600" height="200" fill="url(#bgGrad_119)" rx="10" />
  <rect width="594" height="194" x="3" y="3" fill="none" stroke="hsl(230, 90%, 55%)" stroke-width="1.5" stroke-opacity="0.35" rx="9" />
  <text x="15" y="22" fill="#64748b" font-family="sans-serif" font-size="10" font-weight="bold">NETWORKING TECHNICAL SCHEMATIC #119</text>
  
      <g transform="translate(100, 30)">
        <!-- Central Switch -->
        <rect x="150" y="55" width="100" height="40" rx="6" fill="#0f172a" stroke="hsl(230, 90%, 55%)" stroke-width="3" />
        <text x="200" y="80" text-anchor="middle" fill="hsl(230, 90%, 55%)" font-family="sans-serif" font-size="12" font-weight="bold">L2 SWITCH</text>
        <!-- Ports -->
        <circle cx="170" cy="90" r="3" fill="#22c55e" />
        <circle cx="185" cy="90" r="3" fill="#22c55e" />
        <circle cx="200" cy="90" r="3" fill="#22c55e" />
        <circle cx="215" cy="90" r="3" fill="#ef4444" />
        <!-- Node Links -->
        <line x1="200" y1="55" x2="100" y2="15" stroke="hsl(275, 85%, 50%)" stroke-width="2.5" />
        <line x1="200" y1="55" x2="300" y2="15" stroke="hsl(275, 85%, 50%)" stroke-width="2.5" />
        <line x1="200" y1="95" x2="100" y2="135" stroke="hsl(275, 85%, 50%)" stroke-width="2.5" />
        <line x1="200" y1="95" x2="300" y2="135" stroke="hsl(275, 85%, 50%)" stroke-width="2.5" />
        <!-- Nodes -->
        <rect x="70" y="0" width="50" height="30" rx="4" fill="#1e293b" stroke="#64748b" stroke-width="2" />
        <rect x="280" y="0" width="50" height="30" rx="4" fill="#1e293b" stroke="#64748b" stroke-width="2" />
        <rect x="70" y="120" width="50" height="30" rx="4" fill="#1e293b" stroke="#64748b" stroke-width="2" />
        <rect x="280" y="120" width="50" height="30" rx="4" fill="#1e293b" stroke="#64748b" stroke-width="2" />
        <text x="200" y="155" text-anchor="middle" fill="#e2e8f0" font-family="sans-serif" font-size="13" font-weight="bold">Star Topology Hardware Switching</text>
      </g>
    
</svg>